<svg width="80" height="80" fill="none" xmlns="http://www.w3.org/2000/svg">
  <mask id="prefix__a" style="mask-type:alpha" maskUnits="userSpaceOnUse" x="0" y="0" width="80" height="80">
    <path fill="#D9D9D9" d="M0 0h80v80H0z"/>
  </mask>
  <g mask="url(#prefix__a)">
    <path d="M20 63.498l6.584-2.667a92.03 92.03 0 01-1.542-4.917 46.197 46.197 0 01-1.125-5l-3.916 2.667v9.917zm13.334-3.5h13.333c1-2.222 1.806-4.93 2.417-8.125.611-3.195.917-6.459.917-9.792 0-5.5-.917-10.708-2.75-15.625C45.417 21.54 43 17.748 40 15.081c-3 2.667-5.417 6.458-7.25 11.375C30.917 31.373 30 36.581 30 42.081c0 3.333.305 6.597.916 9.792.611 3.194 1.417 5.903 2.417 8.125zm6.667-16.667c-1.834 0-3.403-.653-4.709-1.958-1.305-1.306-1.958-2.875-1.958-4.709 0-1.833.653-3.402 1.958-4.708 1.306-1.305 2.875-1.958 4.709-1.958 1.833 0 3.402.652 4.708 1.958 1.305 1.306 1.958 2.875 1.958 4.708 0 1.834-.653 3.403-1.958 4.709-1.306 1.305-2.875 1.958-4.708 1.958zm20 20.167V53.58l-3.917-2.667a46.197 46.197 0 01-1.125 5 92.03 92.03 0 01-1.542 4.917l6.584 2.667zM40 6.58c5.5 4 9.652 9.083 12.458 15.25 2.805 6.167 4.208 13.333 4.208 21.5l7 4.667a6.375 6.375 0 012.209 2.416c.527 1 .791 2.056.791 3.167v19.75l-16.583-6.667H29.917l-16.583 6.667v-19.75a6.69 6.69 0 01.792-3.167 6.374 6.374 0 012.208-2.416l7-4.667c0-8.167 1.403-15.333 4.208-21.5 2.806-6.167 6.959-11.25 12.459-15.25z" fill="#fff"/>
  </g>
</svg>
